<svg xmlns="http://www.w3.org/2000/svg" xmlns:xlink="http://www.w3.org/1999/xlink" viewBox="0 0 947.6 164.7"><g fill="#182642"><path d="M561.3 125.6l-12.8 31.2h-4l-4-23.4c0-.2-.1-.5-.1-.8s-.1-.6-.1-.9l-.6 1.7-9.8 23.4h-4l-5.1-31.2h3.5c.4 0 .7.1.9.3s.4.4.4.8l3.2 21.3c0 .4.1.8.1 1.3s.1.9.1 1.4c.2-.5.3-1 .5-1.5l.5-1.3 9-21.3c.1-.3.3-.5.6-.7a1.69 1.69 0 0 1 1-.3h1c.4 0 .7.1.9.3s.4.4.5.8l3.7 21.3c.1.4.1.8.2 1.3s.1.9.1 1.4l.8-2.7 8.4-21.3c.1-.3.3-.5.6-.7a1.93 1.93 0 0 1 1-.3h3.5zm15.6 27.1l-2.2 2c-.7.6-1.4 1-2.2 1.4-.7.4-1.5.6-2.3.8s-1.7.2-2.7.2c-1.3 0-2.4-.2-3.4-.6s-1.9-1-2.6-1.8-1.3-1.7-1.6-2.8c-.4-1.1-.6-2.4-.6-3.7 0-1.1.1-2.3.4-3.4.2-1.1.6-2.2 1.1-3.2s1-1.9 1.7-2.8a12.52 12.52 0 0 1 2.3-2.3c.9-.7 1.8-1.1 2.8-1.5s2.1-.5 3.3-.5c1.1 0 2.1.2 2.9.5s1.5.7 2.1 1.2.9 1.1 1.2 1.7.4 1.2.4 1.8c0 1-.2 1.8-.6 2.6s-1.1 1.5-2.1 2.2c-1 .6-2.5 1.2-4.3 1.7s-4.1.9-7 1.2v.8c0 1.9.4 3.3 1.2 4.3s2.1 1.5 3.7 1.5c.7 0 1.3-.1 1.8-.2s1-.3 1.4-.5.8-.4 1.1-.7c.3-.2.6-.5.9-.7s.5-.4.8-.5c.2-.1.5-.2.7-.2s.3 0 .4.1a1.38 1.38 0 0 0 .4.3l1 1.1zm-6.3-15.3c-.9 0-1.7.2-2.4.5-.7.4-1.4.8-2 1.5s-1.1 1.4-1.5 2.2-.7 1.8-1 2.8l5.1-.9c1.3-.3 2.3-.7 3-1.1s1.2-.8 1.4-1.3c.2-.4.3-.9.3-1.4 0-.2-.1-.5-.2-.8s-.3-.5-.5-.7-.6-.4-.9-.6a4.44 4.44 0 0 0-1.3-.2zm16.2-13.4c.5 1 .7 2.1.7 3.1s-.1 2-.5 3-.9 1.9-1.6 2.8-1.5 1.8-2.5 2.5l-1.1-.8a.55.55 0 0 1-.3-.5c0-.1 0-.2.1-.3s.2-.3.3-.4c.3-.3.6-.8.9-1.3s.6-1.1.8-1.7.3-1.3.3-2-.2-1.5-.5-2.2c-.1-.2-.1-.5 0-.7s.3-.4.6-.5l2.8-1zm7.7 16.7c.6-1.2 1.2-2.2 1.9-3.1s1.4-1.6 2.1-2.1a5.05 5.05 0 0 1 2.3-.9c.8-.1 1.6 0 2.3.4l-.8 4.1c-1.9-.8-3.5-.5-4.9.8s-2.5 3.6-3.4 7l-1.2 10h-4.2l2.7-22.1h2.1c.5 0 .8.1 1.1.3.2.2.4.6.4 1.1l-.4 4.5zm26.1 12l-2.2 2c-.7.6-1.4 1-2.2 1.4-.7.4-1.5.6-2.3.8s-1.7.2-2.7.2c-1.3 0-2.4-.2-3.4-.6s-1.9-1-2.6-1.8-1.3-1.7-1.6-2.8c-.4-1.1-.6-2.4-.6-3.7 0-1.1.1-2.3.4-3.4.2-1.1.6-2.2 1.1-3.2s1-1.9 1.7-2.8a12.52 12.52 0 0 1 2.3-2.3c.9-.7 1.8-1.1 2.8-1.5s2.1-.5 3.3-.5c1.1 0 2.1.2 2.9.5s1.5.7 2.1 1.2.9 1.1 1.2 1.7.4 1.2.4 1.8c0 1-.2 1.8-.6 2.6s-1.1 1.5-2.1 2.2c-1 .6-2.5 1.2-4.3 1.7s-4.1.9-7 1.2v.8c0 1.9.4 3.3 1.2 4.3s2.1 1.5 3.7 1.5c.7 0 1.3-.1 1.8-.2s1-.3 1.4-.5.8-.4 1.1-.7c.3-.2.6-.5.9-.7s.5-.4.8-.5c.2-.1.5-.2.7-.2s.3 0 .4.1.2.2.4.3l1 1.1zm-6.3-15.3c-.9 0-1.7.2-2.4.5-.7.4-1.4.8-2 1.5s-1.1 1.4-1.5 2.2-.7 1.8-1 2.8l5.1-.9c1.3-.3 2.3-.7 3-1.1s1.2-.8 1.4-1.3c.2-.4.3-.9.3-1.4 0-.2-.1-.5-.2-.8s-.3-.5-.5-.7-.6-.4-.9-.6a4.44 4.44 0 0 0-1.3-.2zm34.5-11.8c1.7 0 3.1.2 4.3.5s2.2.8 2.9 1.4c.8.6 1.3 1.3 1.7 2.2s.5 1.8.5 2.9c0 .9-.1 1.8-.4 2.6s-.7 1.6-1.2 2.3-1.2 1.3-2 1.9c-.8.5-1.7 1-2.8 1.3 1.9.4 3.2 1.1 4.2 2.2.9 1 1.4 2.4 1.4 4a10.57 10.57 0 0 1-.8 4c-.5 1.2-1.3 2.3-2.3 3.1-1 .9-2.2 1.6-3.6 2.1s-3 .7-4.8.7h-10.4l3.8-31.2h9.5zm-2.5 27.7c1.1 0 2.1-.1 2.9-.4s1.5-.7 2.1-1.3c.6-.5 1-1.2 1.2-2 .3-.8.4-1.6.4-2.6 0-.7-.1-1.3-.3-1.8s-.5-1-1-1.4c-.4-.4-1-.7-1.7-.9s-1.5-.3-2.4-.3h-5.9l-1.3 10.6h6zm-2.9-24.2l-1.3 10.4h4.8c1.1 0 2.1-.1 2.9-.4s1.6-.7 2.1-1.2c.6-.5 1-1.2 1.3-1.9.3-.8.4-1.6.4-2.6 0-1.5-.4-2.5-1.3-3.2s-2.2-1.1-4-1.1h-4.9zm37.9 5.6l-2.7 22.1h-2.1c-1 0-1.5-.5-1.5-1.5l.3-3.6c-1.1 1.8-2.4 3.2-3.9 4.1-1.4.9-2.9 1.4-4.4 1.4-.9 0-1.8-.2-2.5-.6s-1.3-.9-1.8-1.6c-.4-.7-.8-1.6-.9-2.6-.2-1-.2-2.2 0-3.6l1.7-14h4.2l-1.7 14c-.2 1.7-.1 2.9.3 3.7s1.1 1.2 2.2 1.2c.7 0 1.3-.2 2-.5s1.3-.9 2-1.5c.6-.7 1.2-1.4 1.8-2.4.5-.9 1-2 1.4-3.1l1.3-11.4h4.3zm10.4 0l-2.7 22.1h-4.2l2.7-22.1h4.2zm1.4-6.8c0 .4-.1.8-.2 1.1-.2.4-.4.7-.7.9-.3.3-.6.5-.9.6s-.7.2-1.1.2-.7-.1-1-.2l-.9-.6c-.3-.3-.5-.6-.6-.9-.2-.4-.2-.7-.2-1.1s.1-.8.2-1.1c.2-.4.4-.7.6-.9.3-.3.6-.5.9-.6.3-.2.7-.2 1.1-.2s.7.1 1.1.2c.3.2.7.4.9.6.3.3.5.6.6.9s.2.7.2 1.1zm2.2 28.9l3.9-32.1h4.2l-3.9 32.1h-4.2zm31.7-32.1l-4 32.1h-2.2c-.6 0-.9-.1-1.1-.4a1.69 1.69 0 0 1-.3-1l.4-4.2-1.8 2.5c-.6.7-1.3 1.4-2 1.9s-1.4.9-2.2 1.2-1.5.4-2.3.4c-1.9 0-3.3-.7-4.4-2-1.1-1.4-1.6-3.4-1.6-6.1 0-1.2.1-2.4.4-3.6s.6-2.3 1.1-3.4 1-2.1 1.7-3c.6-.9 1.4-1.7 2.2-2.4s1.7-1.2 2.6-1.6 1.9-.6 2.9-.6c1.1 0 2 .2 2.9.6s1.6 1 2.2 1.7l1.5-12h4zm-6 14.9a4.54 4.54 0 0 0-1.9-1.5c-.7-.3-1.5-.4-2.2-.4s-1.4.2-2.1.5c-.6.3-1.2.7-1.8 1.2-.5.5-1 1.1-1.4 1.8s-.8 1.5-1.1 2.3-.5 1.7-.7 2.5-.2 1.7-.2 2.6c0 1.7.3 3 .9 3.8.6.9 1.4 1.3 2.5 1.3.7 0 1.3-.2 2-.6s1.3-1 2-1.8 1.2-1.6 1.8-2.7c.6-1 1-2.2 1.4-3.4l.8-5.6zm15.1-4.9l-2.7 22.1h-4.2l2.7-22.1h4.2zm1.5-6.8c0 .4-.1.8-.2 1.1-.2.4-.4.7-.7.9s-.6.5-.9.6c-.3.2-.7.2-1.1.2s-.7-.1-1-.2l-.9-.6c-.3-.2-.5-.6-.6-.9-.2-.4-.2-.7-.2-1.1s.1-.8.2-1.1c.2-.4.4-.7.6-.9.3-.3.6-.5.9-.6.3-.2.7-.2 1.1-.2s.7.1 1.1.2.7.4.9.6c.3.3.5.6.6.9s.2.7.2 1.1zm8 12.1c1.2-1.9 2.5-3.3 3.9-4.2 1.5-.9 2.9-1.4 4.5-1.4.9 0 1.8.2 2.5.6s1.3.9 1.8 1.6c.4.7.8 1.6.9 2.6.2 1 .2 2.2 0 3.6l-1.7 14.1h-4.2l1.7-14.1c.2-1.7.1-2.9-.3-3.7s-1.1-1.2-2.2-1.2c-.7 0-1.3.2-2 .6s-1.4.9-2 1.6-1.2 1.5-1.8 2.4c-.6 1-1 2-1.4 3.2l-1.2 11.1h-4.2l2.6-22.1h2.1c.5 0 .8.1 1.1.3.2.2.4.6.4 1.1l-.5 3.9zm38-4.5l-.2 1.4c-.1.6-.4 1-.9 1.1l-2.6.5c.1.3.2.7.3 1.1s.1.8.1 1.2c0 .7-.1 1.4-.3 1.9l-.6 1.6c-.2.5-.5.9-.8 1.4l-.8 1.3c-.3.4-.4.9-.6 1.3-.2.5-.2 1-.2 1.5 0 .6.1 1.1.4 1.6l.9 1.5c.3.5.7 1.1.9 1.7.3.6.4 1.3.4 2.2 0 1-.3 2-.7 3s-1.2 1.8-2.1 2.5-2 1.3-3.3 1.7-2.7.6-4.3.6c-1.3 0-2.5-.1-3.5-.4-1.1-.3-1.9-.6-2.7-1.1-.7-.5-1.3-1.1-1.7-1.8s-.6-1.4-.6-2.2c0-.9.2-1.8.6-2.5s.9-1.3 1.6-1.9c.7-.5 1.5-.9 2.4-1.3.9-.3 1.8-.6 2.8-.7l3.1-.2c1 0 2 .1 3 .2-.1-.2-.2-.5-.3-.8s-.1-.6-.1-.9c0-.4.1-.9.2-1.4s.3-1 .6-1.6c-.6.4-1.2.7-1.8.9s-1.5.3-2.4.3c-.8 0-1.6-.1-2.4-.4s-1.4-.7-1.9-1.2c-.6-.5-1-1.2-1.3-2a8.21 8.21 0 0 1-.5-2.8 8.15 8.15 0 0 1 .6-3.1c.4-1 1-1.9 1.7-2.7s1.7-1.4 2.8-1.9 2.4-.7 3.8-.7c.8 0 1.5.1 2.2.3s1.4.5 1.9.8h6.3zm-7.8 21.7c0-.3 0-.6-.1-.9s-.1-.6-.2-.8c-1.9-.3-3.5-.4-4.8-.4a9.73 9.73 0 0 0-3.3.6c-.9.3-1.5.8-1.9 1.3s-.6 1.1-.6 1.7c0 1 .4 1.8 1.2 2.3s2 .8 3.6.8c.9 0 1.8-.1 2.5-.4.8-.2 1.4-.6 1.9-1s1-.9 1.3-1.4c.3-.6.4-1.2.4-1.8zm-4.1-10.4c.7 0 1.4-.2 2-.5s1.1-.8 1.5-1.3.7-1.1.9-1.8.3-1.4.3-2.1c0-1.2-.3-2.2-.9-2.8s-1.5-1-2.6-1c-.7 0-1.4.2-2 .5s-1.1.7-1.4 1.2c-.4.5-.7 1.1-.9 1.8s-.3 1.4-.3 2.1c0 1.2.3 2.2.9 2.9s1.4 1 2.5 1zm32.3-17.6l-1.3 10.7h11.4l-.5 3.6h-11.4l-1.6 13.3h-4.5l3.8-31.2h17.9l-.5 3.6H804z"/><use xlink:href="#B"/><path d="M845.9 140.7c.6-1.2 1.2-2.2 1.9-3.1s1.4-1.6 2.1-2.1a5.05 5.05 0 0 1 2.3-.9c.8-.1 1.6 0 2.3.4l-.8 4.1c-1.9-.8-3.5-.5-4.9.8s-2.5 3.6-3.4 7l-1.2 10H840l2.7-22.1h2.1c.5 0 .8.1 1.1.3.2.2.4.6.4 1.1l-.4 4.5zm31.3 3.7l-1.5 12.4h-4.5l1.5-12.4-8.2-18.9h4c.4 0 .7.1.9.3s.4.4.5.8l4.9 12c.2.5.3.9.4 1.3l.3 1.2.6-1.2c.2-.4.5-.8.7-1.3l7.9-12c.2-.3.4-.5.6-.7a1.69 1.69 0 0 1 1-.3h3.7l-12.8 18.8z"/><use xlink:href="#B" x="68.5"/><path d="M928.8 134.7l-2.7 22.1H924c-1 0-1.5-.5-1.5-1.5l.3-3.6c-1.1 1.8-2.4 3.2-3.9 4.1-1.4.9-2.9 1.4-4.4 1.4-.9 0-1.8-.2-2.5-.6s-1.3-.9-1.8-1.6c-.4-.7-.8-1.6-.9-2.6s-.2-2.2 0-3.6l1.7-14h4.2l-1.7 14c-.2 1.7-.1 2.9.3 3.7s1.1 1.2 2.2 1.2c.7 0 1.3-.2 2-.5.7-.4 1.3-.9 2-1.5.6-.7 1.2-1.4 1.8-2.4.5-.9 1-2 1.4-3.1l1.3-11.4h4.3zm8-9.1h-2.5l-1 7.9h-1.7l1-7.9h-2.5l.2-1.4h6.8l-.3 1.4zm10.8-1.4l-1.1 9.3H945l.7-6c0-.1 0-.2.1-.4 0-.1 0-.3.1-.4l-3.2 5.3-.3.3c-.1.1-.2.1-.4.1h-.2c-.1 0-.2 0-.3-.1s-.2-.1-.2-.3l-1.9-5.3v.7l-.7 6.1h-1.5l1.1-9.3h1.5s.1 0 .1.1.1.1.1.1l1.9 5.3c.1.2.1.5.2.7.1-.1.1-.2.2-.4.1-.1.1-.2.2-.3l3.2-5.3.2-.2h1.7zM0 50c0 27.6 22.4 50 50 50h52.9V0H50C22.4 0 0 22.4 0 50zm94.1-4.7H61.8c-1.9-4.7-6.5-8-11.8-8-7 0-12.7 5.7-12.7 12.7S43 62.7 50 62.7c5.3 0 9.9-3.3 11.8-7.9h32.3C91.6 77 72.8 94.3 50 94.3v3.5C24 97.8 2.2 76 2.2 50S24 2.2 50 2.2v3.5c22.9 0 41.7 17.4 44.1 39.6zm-44.9 48V65.6c-3.8-.2-7.2-1.7-9.8-4.1L19.8 81.1c7.6 7.4 18 12 29.4 12.2zM6.6 50c0 11.7 4.6 22.3 12.2 30.1l19.6-19.6c-2.5-2.8-4.1-6.5-4.1-10.5s1.5-7.7 4-10.5L18.8 19.9C11.2 27.7 6.6 38.3 6.6 50zm32.8-11.6c2.6-2.4 6-3.9 9.8-4.1V6.6c-11.4.2-21.8 4.8-29.4 12.2l19.6 19.6zm126.3 33.3c-12.4 0-21-10.1-21-22.3v-.2c0-12.2 8.8-22.1 21-22.1 7.2 0 12.9 3 18.5 8l10.1-11.5c-6.7-6.4-14.9-10.9-28.5-10.9-22.2 0-37.7 16.5-37.7 36.7v.2c0 20.4 15.8 36.5 37.1 36.5 14 0 22.2-4.8 29.6-12.7l-10.1-10c-5.7 5.1-10.7 8.3-19 8.3zm159.2-33.8v-.2c0-14.9-10.2-23.9-27.3-23.9h-33v72.3h15.9V63H293l15.5 23.1h18.6l-17.7-25.8c9.2-3.4 15.5-10.7 15.5-22.4zm-16.1.8c0 6.1-4.4 10.2-12.2 10.2h-16.1V28.2h15.8c7.7 0 12.5 3.5 12.5 10.3v.2zm204.5-.8v-.2c0-14.9-10.2-23.9-27.3-23.9h-33.1v72.3h15.9V63h12.5l15.5 23.1h18.6l-17.6-25.8c9.2-3.4 15.5-10.7 15.5-22.4zm-16.1.8c0 6.1-4.4 10.2-12.2 10.2h-16.1V28.2h15.8c7.7 0 12.5 3.5 12.5 10.3v.2zM241.9 14.8c-3.5-1.3-7.5-2-12-2H228c-4.5 0-8.5.7-12 2-10 3.7-15.8 12.1-15.8 23.1v48.2h16.3V63.2h24.9v22.9h16.3V37.9c0-11-5.8-19.5-15.8-23.1zm-.3 34.2h-25.2V38.1c0-7 4.9-10.7 12.6-10.9 7.7.1 12.5 3.9 12.6 10.9V49zM331 86.1h55.1V72h-39.3v-9.1h34V48.8h-34V28h39.3V13.8H331zm61 0h55V72h-39.2v-9.1h34V48.8h-34V28H447V13.8h-55zm171.6-37.2c5.9-2.4 12.3-7.3 12.3-17.1v-.2c0-10.8-9.4-17.7-23.4-17.7h-29.8V86H554c15.5 0 25.8-7.6 25.8-19.7v-.2c0-10-7.6-14.9-16.2-17.2zm-35.6-30h24.3c11.5 0 18 5.4 18 13.3v.2c0 9.6-7.7 14.7-18.5 14.7H528V18.9zm46.4 47.4c0 9.1-7.8 14.7-20.2 14.7h-26.1V52h24.4c14.2 0 21.9 5.3 21.9 14.1v.2zM642.1 56c0 17.4-9.4 26.3-24 26.3-15.2 0-24.4-9.8-24.4-26.8V13.9h-5.4V56c0 20.2 12.2 31.1 29.5 31.1 17.5 0 29.5-11 29.7-31.7V13.9h-5.4V56zm21.1-42.1h5.4V86h-5.4zm26.6 0h-5.4V86h47.7v-4.9h-42.3zm74.6 0h-24V86h24c22.6 0 38.3-15.8 38.3-36v-.2c0-20.3-15.7-35.9-38.3-35.9zm32.7 36.3c0 17.2-12.7 30.9-32.7 30.9h-18.6V18.9h18.6c20.1 0 32.7 14 32.7 31.1v.2zm19.4 1.8h41.3v-4.9h-41.3V18.9h46v-5h-51.3V86H863v-4.9h-46.5zm107.9-19.9c-.2-13-9.5-18.3-23.5-18.3h-29.8v72.1h5.4V52h22l24.6 34h6.8l-24.8-34c9.8-.7 19.6-5 19.3-19.9zm-47.8 15V18.8h24.3c11.5 0 17.7 4.3 18 13.3.4 11.5-6.5 15-18.5 15h-23.8zm57.2-33.3c-3.8 0-6.9 3.1-6.9 6.9s3.1 6.9 6.9 6.9 6.9-3.1 6.9-6.9-3.1-6.9-6.9-6.9zm0 12.8c-3.2 0-5.8-2.6-5.8-5.8s2.6-5.8 5.8-5.8c3.1 0 5.7 2.5 5.8 5.8 0 3.2-2.6 5.8-5.8 5.8zm1.8-5.3c.2-.1.4-.2.6-.4s.3-.4.4-.6c.1-.3.1-.5.1-.8s0-.6-.1-.8-.2-.4-.4-.6-.5-.4-.8-.5-.7-.2-1.1-.2h-3v6.9h.8v-2.7h1.9l2 2.7h1l-2.1-2.8c.2 0 .5-.1.7-.2zm-3.5-.4v-2.8h2.1c.6 0 1 .2 1.3.4s.5.6.5 1c0 .2 0 .4-.1.6-.1.1-.2.3-.4.4l-.6.3c-.2.1-.4.1-.7.1h-2.1z"/></g><defs ><path id="B" d="M825.3 157.1c-1.2 0-2.3-.2-3.3-.6s-1.9-1-2.6-1.8-1.3-1.7-1.7-2.9c-.4-1.1-.6-2.4-.6-3.9 0-1.9.3-3.6.9-5.3.6-1.6 1.4-3.1 2.4-4.3s2.2-2.2 3.6-2.9 2.9-1.1 4.5-1.1c1.2 0 2.3.2 3.3.6s1.9 1 2.6 1.8 1.3 1.7 1.7 2.9c.4 1.1.6 2.4.6 3.9 0 1.9-.3 3.6-.9 5.3-.6 1.6-1.4 3.1-2.4 4.3s-2.2 2.2-3.6 2.9c-1.4.8-2.9 1.1-4.5 1.1zm.4-3.3c1 0 1.9-.3 2.8-.8.8-.6 1.5-1.3 2.1-2.3.6-.9 1-2 1.4-3.3a16 16 0 0 0 .5-3.9c0-2-.4-3.5-1.1-4.4-.8-1-1.9-1.5-3.3-1.5-1 0-2 .3-2.8.8-.8.6-1.5 1.3-2.1 2.2s-1 2-1.4 3.3a16 16 0 0 0-.5 3.9c0 2 .4 3.4 1.1 4.4.7 1.1 1.8 1.6 3.3 1.6z"/></defs></svg>